<?xml version="1.0" standalone="no"?>
<!DOCTYPE svg PUBLIC "-//W3C//DTD SVG 20010904//EN"
 "http://www.w3.org/TR/2001/REC-SVG-20010904/DTD/svg10.dtd">
<svg version="1.0" xmlns="http://www.w3.org/2000/svg"
 width="184.000000pt" height="273.000000pt" viewBox="0 0 184.000000 273.000000"
 preserveAspectRatio="xMidYMid meet">

<g transform="translate(0.000000,273.000000) scale(0.100000,-0.100000)"
fill="#000000" stroke="none">
<path d="M1 2468 c1 -145 3 -255 6 -246 5 21 15 23 238 48 99 12 183 24 187
28 4 4 20 42 37 85 l30 79 -25 38 -26 39 38 62 38 61 54 -5 c34 -4 68 -1 94 9
46 16 149 19 163 5 6 -6 39 -11 75 -13 l65 -3 43 -65 c31 -48 41 -72 37 -90
-3 -14 -9 -51 -15 -84 -5 -35 -17 -67 -29 -80 -12 -12 -21 -34 -21 -48 0 -14
-11 -49 -24 -78 -18 -38 -23 -62 -19 -88 5 -30 2 -39 -20 -56 -31 -25 -48
-105 -28 -130 6 -7 91 -42 189 -76 97 -35 182 -68 188 -74 16 -16 57 -223 51
-255 -3 -14 -8 -33 -12 -43 -4 -11 0 -18 13 -23 17 -5 19 -11 13 -33 -5 -15
-4 -88 1 -162 9 -121 7 -147 -12 -252 -19 -102 -25 -118 -41 -118 -23 0 -23
-6 1 72 33 108 41 196 28 310 -6 57 -11 114 -10 128 0 14 -4 31 -10 37 -6 7
-7 24 -4 38 4 15 1 34 -8 48 -8 12 -17 64 -21 119 l-7 97 -34 -4 c-21 -2 -40
3 -49 11 -9 9 -16 10 -20 4 -10 -16 -25 -12 -25 7 0 9 -3 13 -7 10 -3 -4 -13
2 -21 14 -9 13 -21 19 -33 16 -11 -3 -19 -1 -19 4 0 5 -3 8 -7 7 -5 -1 -18 3
-30 10 -15 8 -23 9 -23 2 0 -14 -20 -8 -44 13 -15 13 -22 14 -27 5 -6 -9 -10
-8 -15 5 -5 13 -10 15 -19 7 -11 -9 -12 -6 -9 12 2 13 -5 -2 -16 -32 -11 -30
-26 -66 -33 -80 -8 -14 -24 -56 -36 -95 -12 -38 -29 -90 -38 -115 -8 -25 -16
-55 -17 -67 -4 -41 -12 -34 -15 13 -1 25 -5 53 -9 64 -4 10 -6 50 -4 89 3 59
6 70 23 73 17 3 17 5 -7 36 -32 40 -53 40 -90 0 -16 -18 -21 -26 -12 -19 15
11 18 9 24 -13 3 -15 1 -46 -5 -71 -6 -24 -12 -61 -12 -82 -1 -21 -3 -30 -6
-20 -2 9 -9 14 -15 11 -6 -4 -8 1 -3 15 5 18 -12 102 -32 151 -3 8 -8 24 -10
34 -2 11 -8 26 -15 33 -6 7 -8 16 -5 20 4 3 2 12 -3 19 -6 6 -10 16 -9 20 1 5
1 17 0 28 -1 15 -4 16 -16 6 -8 -7 -15 -9 -15 -4 0 4 -11 -3 -25 -16 -16 -15
-41 -24 -75 -28 -27 -2 -50 -8 -50 -13 0 -5 -15 -9 -32 -9 -18 0 -58 -7 -88
-15 -30 -8 -67 -15 -81 -15 -30 0 -42 -20 -33 -56 3 -13 0 -54 -6 -91 -16 -82
-19 -111 -21 -185 -1 -32 -6 -58 -10 -58 -5 0 -9 6 -9 13 0 7 -5 5 -10 -5 -6
-9 -13 -114 -16 -235 l-7 -218 53 -48 c28 -26 56 -47 62 -47 5 0 6 15 3 34
-14 73 68 101 130 44 l30 -28 19 26 c11 15 22 21 25 15 6 -10 72 6 87 21 3 3
19 2 35 -2 16 -5 29 -6 29 -2 0 3 5 1 12 -6 7 -7 21 -12 33 -12 12 0 26 -5 33
-12 17 -17 126 8 118 27 -3 8 -1 40 4 72 12 74 4 127 -18 118 -9 -3 -13 -2 -8
2 4 4 36 8 71 8 61 1 65 2 131 56 95 77 194 151 194 146 0 -2 19 -1 42 3 23 5
52 4 64 0 13 -5 26 -4 32 2 6 6 12 6 17 -3 6 -8 4 -10 -4 -5 -8 5 -14 1 -18
-12 -3 -15 -18 -23 -51 -29 l-47 -9 60 -13 c66 -14 85 -25 85 -49 0 -12 -11
-14 -62 -9 -70 6 -59 -7 14 -17 52 -8 61 -15 52 -41 -6 -14 -17 -15 -76 -10
-50 5 -68 4 -64 -4 4 -6 22 -11 39 -11 39 0 54 -9 54 -32 0 -20 2 -20 -83 -19
-53 0 -65 -4 -85 -25 -31 -33 -103 -65 -179 -80 -19 -3 -44 -11 -55 -17 -11
-7 -33 -16 -49 -22 -24 -8 -29 -16 -32 -50 -2 -30 -10 -46 -32 -63 l-30 -23
20 -40 c19 -41 21 -73 3 -67 -5 2 -8 13 -7 25 4 24 -27 46 -52 37 -13 -5 -14
-9 -2 -32 8 -15 23 -36 35 -46 12 -11 21 -25 21 -32 0 -7 6 -14 13 -17 6 -3
-7 -5 -31 -5 -49 0 -59 -6 -63 -42 -3 -33 10 -60 27 -60 8 0 14 -5 14 -11 0
-7 7 -8 18 -4 59 24 112 9 129 -36 7 -17 16 -28 22 -25 5 4 12 -2 14 -11 4
-16 5 -16 6 -1 0 9 -5 23 -12 30 -14 14 -14 20 -3 60 5 16 12 25 17 23 4 -3 4
-17 -1 -31 -13 -32 -13 -32 3 -31 32 1 48 -4 42 -13 -3 -5 -2 -10 4 -10 5 0
11 8 13 17 3 10 8 -6 12 -35 6 -40 12 -52 24 -50 8 2 17 9 20 17 3 10 -1 12
-14 8 -18 -7 -18 -7 0 8 10 8 22 12 27 10 4 -3 15 5 23 17 17 25 21 13 7 -24
-4 -13 -5 -32 0 -43 7 -19 8 -19 8 3 1 13 6 32 11 43 9 15 14 17 29 7 11 -7
17 -18 14 -27 -4 -11 -3 -13 5 -6 5 6 12 18 14 27 5 28 26 6 29 -32 l4 -35
-225 -16 c-124 -9 -204 -17 -177 -18 l47 -1 0 -50 c0 -36 4 -52 15 -56 11 -5
15 -24 15 -81 l0 -74 -62 3 -63 3 -3 128 c-2 104 -5 127 -17 127 -13 0 -15
-23 -15 -135 l0 -135 103 0 c56 0 149 -3 207 -5 58 -3 265 -8 462 -11 l356 -6
6 -32 c5 -28 10 -32 41 -34 l35 -3 0 1366 0 1365 -920 0 -920 0 1 -262z m1744
152 c-3 -5 -33 -10 -66 -10 -52 0 -59 -2 -59 -20 0 -11 4 -20 9 -20 5 0 17 -3
26 -7 14 -5 16 -2 10 15 -6 20 -3 22 35 22 42 0 59 -17 44 -41 -5 -9 -10 -7
-15 7 -7 17 -8 17 -8 2 -1 -10 -5 -18 -11 -18 -5 0 -10 8 -11 18 0 14 -2 13
-9 -4 -7 -18 -14 -20 -47 -15 -30 5 -39 11 -41 29 -6 40 14 52 85 52 40 0 62
-4 58 -10z m-5 -91 c0 -5 -31 -9 -70 -9 -38 0 -70 4 -70 10 0 5 32 9 70 9 39
0 70 -5 70 -10z m-690 -454 c0 -8 -7 -15 -15 -15 -12 0 -15 -15 -15 -75 0 -60
-3 -75 -15 -75 -12 0 -15 15 -15 75 0 60 -3 75 -15 75 -8 0 -15 7 -15 15 0 11
12 15 45 15 33 0 45 -4 45 -15z m100 1 c0 -7 -13 -16 -30 -19 -34 -7 -42 -37
-10 -37 11 0 20 -7 20 -15 0 -8 -9 -15 -20 -15 -13 0 -20 -7 -20 -20 0 -16 7
-20 30 -20 46 0 39 -27 -9 -32 l-39 -3 -6 50 c-3 27 -6 67 -6 88 l0 37 45 0
c32 0 45 -4 45 -14z m105 -17 c5 -20 3 -34 -4 -39 -8 -5 -10 -23 -5 -58 4 -35
3 -52 -4 -52 -11 0 -32 60 -32 93 0 9 -4 17 -10 17 -5 0 -10 -25 -10 -55 0
-42 -3 -55 -15 -55 -12 0 -15 17 -15 90 l0 90 44 0 c42 0 45 -2 51 -31z m95
17 c0 -7 -13 -16 -30 -19 -33 -7 -33 -31 1 -40 25 -7 25 -27 -1 -27 -13 0 -20
-7 -20 -20 0 -16 7 -20 30 -20 20 0 30 -5 30 -15 0 -11 -12 -15 -45 -15 l-45
0 0 85 0 85 40 0 c27 0 40 -4 40 -14z m98 -63 l3 -70 29 1 30 1 0 73 c0 65 2
73 18 70 14 -3 18 -16 20 -68 5 -105 2 -110 -68 -110 l-60 0 0 91 c0 68 3 90
13 87 8 -3 13 -30 15 -75z m149 50 l7 -28 6 25 c3 14 13 26 23 28 15 3 15 0 2
-39 -8 -23 -15 -63 -15 -90 0 -37 -4 -49 -15 -49 -11 0 -15 12 -15 49 0 27 -7
67 -15 90 -12 36 -12 41 0 41 8 0 18 -12 22 -27z m143 13 c0 -9 -12 -16 -27
-18 -34 -4 -46 -38 -14 -38 12 0 21 -6 21 -15 0 -8 -9 -15 -20 -15 -13 0 -20
-7 -20 -20 0 -16 7 -20 36 -20 51 0 39 -24 -14 -28 l-42 -3 -1 48 c0 26 -3 59
-5 73 -7 39 2 50 46 50 28 0 40 -4 40 -14z m-1287 -259 c-15 -19 -30 -33 -32
-31 -6 5 40 64 51 64 5 0 -3 -15 -19 -33z m68 19 c14 9 10 -6 -6 -23 -10 -9
-22 -12 -33 -7 -16 7 -16 7 1 11 9 3 17 12 18 21 0 11 2 12 6 4 2 -6 9 -10 14
-6z m479 -66 c0 -16 -4 -30 -8 -30 -5 0 -7 14 -4 30 2 17 6 30 8 30 2 0 4 -13
4 -30z m-124 -11 c-2 -17 -7 -33 -9 -35 -6 -6 -6 49 0 59 10 16 14 5 9 -24z
m-336 -23 c-13 -26 -36 -25 -26 1 4 10 -3 8 -23 -6 -16 -12 -34 -21 -40 -21
-5 0 -14 -8 -20 -17 -7 -13 -13 -15 -21 -7 -8 8 -4 16 15 28 l26 17 -23 20
-23 19 38 -17 c37 -17 39 -17 48 0 6 10 14 15 19 12 5 -3 12 0 15 6 5 8 10 8
18 0 7 -7 7 -18 -3 -35z m306 0 c-1 -37 -16 -39 -16 -2 0 19 7 36 15 36 1 0 2
-15 1 -34z m102 -38 c18 -18 14 -26 -13 -24 -17 1 -25 7 -25 19 0 20 20 23 38
5z m302 -3 c0 -8 -4 -15 -10 -15 -5 0 -10 -8 -10 -17 0 -15 -2 -16 -10 -3 -6
10 -6 16 0 18 6 2 10 10 10 18 0 8 5 14 10 14 6 0 10 -7 10 -15z m-1003 -37
c-3 -8 -6 -5 -6 6 -1 11 2 17 5 13 3 -3 4 -12 1 -19z m-77 -18 c0 -5 -2 -10
-4 -10 -3 0 -8 5 -11 10 -3 6 -1 10 4 10 6 0 11 -4 11 -10z m991 -13 c-10 -9
-11 -8 -5 6 3 10 9 15 12 12 3 -3 0 -11 -7 -18z m-696 -27 c3 -5 1 -10 -4 -10
-6 0 -11 5 -11 10 0 6 2 10 4 10 3 0 8 -4 11 -10z m432 -22 c-3 -8 -6 -5 -6 6
-1 11 2 17 5 13 3 -3 4 -12 1 -19z m-307 8 c0 -3 -4 -8 -10 -11 -5 -3 -10 -1
-10 4 0 6 5 11 10 11 6 0 10 -2 10 -4z m-100 -26 c0 -5 -2 -10 -4 -10 -3 0 -8
5 -11 10 -3 6 -1 10 4 10 6 0 11 -4 11 -10z m370 -14 c0 -3 -4 -8 -10 -11 -5
-3 -10 -1 -10 4 0 6 5 11 10 11 6 0 10 -2 10 -4z m-309 -41 c5 4 9 1 9 -5 0
-17 -25 -6 -26 11 -1 9 1 10 3 1 3 -7 9 -10 14 -7z m-188 -15 c3 -11 2 -18 -3
-15 -4 3 -10 14 -13 25 -3 11 -2 18 3 15 4 -3 10 -14 13 -25z m-243 -16 c0 -8
-4 -12 -10 -9 -5 3 -10 10 -10 16 0 5 5 9 10 9 6 0 10 -7 10 -16z m652 -19 c0
-5 -5 -11 -11 -13 -6 -2 -11 4 -11 13 0 9 5 15 11 13 6 -2 11 -8 11 -13z m442
-13 c-6 -4 -14 -16 -17 -26 -4 -10 -10 -16 -14 -13 -3 4 2 18 11 33 10 14 20
23 24 19 4 -3 2 -9 -4 -13z m-645 -9 c-3 -33 1 -43 17 -43 10 0 14 -6 10 -15
-3 -8 -1 -15 5 -15 6 0 7 -4 4 -10 -9 -15 -25 -12 -25 4 0 8 -5 18 -12 22 -8
5 -9 2 -5 -9 9 -24 0 -21 -14 4 -6 12 -7 19 -1 15 6 -4 9 8 7 29 -2 19 1 35 6
35 6 0 9 -8 8 -17z m241 3 c0 -2 -7 -7 -16 -10 -8 -3 -12 -2 -9 4 6 10 25 14
25 6z m-35 -26 c3 -6 -1 -7 -9 -4 -18 7 -21 14 -7 14 6 0 13 -4 16 -10z m-708
-42 c-3 -7 -5 -2 -5 12 0 14 2 19 5 13 2 -7 2 -19 0 -25z m210 -16 c34 -22 62
-51 158 -170 32 -39 78 -50 94 -23 6 9 11 10 15 3 4 -6 13 -9 20 -6 8 3 17 1
21 -5 3 -6 2 -11 -4 -11 -6 0 -8 -8 -5 -17 4 -11 3 -14 -3 -7 -13 16 -42 24
-49 13 -7 -12 -60 -5 -79 11 -8 7 -29 10 -45 8 -17 -3 -33 -1 -36 4 -3 5 -12
1 -20 -9 -14 -17 -14 -17 -8 0 5 14 2 18 -12 15 -11 -2 -22 -7 -26 -13 -5 -6
-8 -6 -8 2 0 6 -8 10 -17 9 -10 -2 -22 1 -28 6 -5 4 -23 18 -38 29 -15 12 -26
26 -24 33 3 6 -5 21 -16 34 -13 13 -22 38 -23 62 -2 35 1 40 20 40 12 0 28 -6
35 -12 11 -11 13 -10 7 0 -4 7 -4 21 -1 32 5 16 9 18 20 8 7 -7 31 -24 52 -36z
m424 17 c-5 -13 -10 -19 -10 -12 -1 15 10 45 15 40 3 -2 0 -15 -5 -28z m59 16
c0 -8 -2 -15 -4 -15 -2 0 -6 7 -10 15 -3 8 -1 15 4 15 6 0 10 -7 10 -15z
m-147 -105 c3 -11 3 -20 1 -20 -2 0 -8 9 -14 20 -6 11 -7 20 -2 20 6 0 12 -9
15 -20z m50 -137 c-4 -9 0 -11 13 -7 18 5 18 5 0 -10 -14 -11 -24 -13 -37 -5
-22 11 -25 25 -6 32 23 7 35 4 30 -10z m-423 -54 c0 -6 -4 -7 -10 -4 -5 3 -10
11 -10 16 0 6 5 7 10 4 6 -3 10 -11 10 -16z m181 -16 c-12 -20 -14 -14 -5 12
4 9 9 14 11 11 3 -2 0 -13 -6 -23z m-113 -40 c-1 -10 2 -25 7 -33 8 -13 7 -13
-11 0 -10 8 -21 15 -23 17 -3 2 21 32 27 33 2 0 2 -8 0 -17z m-55 -25 c-9 -15
-23 -8 -23 12 0 17 2 19 14 8 8 -7 12 -16 9 -20z m57 -32 c0 -2 -7 -7 -16 -10
-8 -3 -12 -2 -9 4 6 10 25 14 25 6z m656 -166 c15 -38 28 -70 28 -70 1 0 1 30
1 67 0 55 3 68 17 71 14 3 17 -11 23 -92 14 -179 -14 -216 -64 -88 l-30 77 -1
-78 c0 -69 -2 -78 -17 -75 -16 3 -18 19 -21 131 -2 120 -2 127 17 127 15 0 26
-17 47 -70z m214 45 c0 -23 -4 -25 -45 -25 -41 0 -45 -2 -45 -25 0 -21 5 -25
30 -25 23 0 30 -5 30 -19 0 -13 -9 -21 -30 -26 -23 -5 -30 -12 -30 -31 0 -22
4 -24 49 -24 46 0 48 -1 43 -25 -4 -23 -8 -25 -63 -25 l-59 0 -1 53 c-1 28 -3
85 -4 125 l-3 72 64 0 c62 0 64 -1 64 -25z m148 -12 c-2 -31 -7 -39 -25 -41
-15 -2 -23 2 -23 11 0 16 -24 30 -34 20 -3 -4 -6 -44 -6 -90 0 -76 2 -83 20
-83 16 0 20 7 20 30 0 17 -4 30 -10 30 -5 0 -10 11 -10 25 0 22 4 25 36 25
l36 0 -4 -75 c-2 -53 1 -75 9 -75 15 0 70 -246 58 -258 -10 -10 -35 9 -35 28
0 16 -7 20 -30 20 -25 0 -30 -4 -30 -25 0 -21 5 -25 30 -25 30 0 30 -1 30 -54
0 -40 4 -55 16 -60 13 -5 15 -19 12 -73 l-3 -68 -62 -3 -61 -3 -7 53 c-10 92
13 345 41 446 5 17 2 22 -12 22 -16 0 -19 -8 -19 -57 l0 -58 -38 0 -37 0 0
-67 c0 -66 -1 -68 -25 -68 l-25 0 0 123 0 123 33 -1 32 -1 -3 133 -3 133 66 0
66 0 -3 -37z m142 12 c0 -22 -4 -25 -40 -25 -36 0 -40 -3 -40 -24 0 -19 6 -25
27 -28 40 -4 42 -34 4 -43 -24 -5 -31 -12 -31 -31 0 -22 4 -24 45 -24 42 0 45
-2 45 -25 0 -25 -1 -26 -62 -23 l-63 3 -3 123 -3 122 61 0 c57 0 60 -1 60 -25z
m160 -25 c0 -38 -4 -50 -15 -50 -18 0 -18 -1 -3 -90 8 -43 17 -70 25 -70 9 0
13 33 15 128 3 123 4 127 26 130 22 3 22 3 22 -127 0 -127 -1 -131 -21 -131
-17 0 -20 -4 -15 -22 25 -87 37 -181 40 -298 4 -172 0 -202 -28 -198 -18 3
-21 11 -24 61 -3 49 -6 57 -22 57 -18 0 -20 -7 -20 -60 0 -52 -2 -60 -19 -60
-10 0 -22 7 -25 16 -10 26 -7 230 4 276 21 88 39 223 30 226 -5 2 -17 39 -27
83 -23 103 -40 103 -39 -1 1 -44 4 -80 8 -80 5 0 8 -22 8 -50 0 -38 -4 -50
-15 -50 -18 0 -18 7 0 -81 9 -40 13 -74 11 -77 -15 -14 -34 13 -45 64 -18 84
-21 94 -32 94 -5 0 -9 -34 -9 -75 0 -67 -2 -75 -19 -75 -18 0 -20 9 -23 93 -2
50 -1 107 1 125 3 30 5 32 43 32 l41 0 -8 130 -7 130 71 0 71 0 0 -50z m-821
-51 c10 6 23 6 31 1 8 -5 18 -6 22 -4 4 3 8 0 8 -6 0 -7 -8 -9 -20 -5 -11 3
-20 2 -20 -3 0 -5 -13 -7 -30 -4 -30 4 -37 12 -23 26 4 4 9 3 11 -3 2 -7 10
-8 21 -2z m-87 -159 c23 -21 20 -32 -10 -35 -9 -1 -25 -5 -34 -9 -39 -14 -44
-13 -45 6 -2 16 1 17 12 8 8 -6 19 -9 26 -5 8 6 8 10 -2 15 -10 7 -10 11 0 24
18 21 27 20 53 -4z m305 -92 c-3 -8 -6 -5 -6 6 -1 11 2 17 5 13 3 -3 4 -12 1
-19z m-147 2 c0 -5 -5 -10 -11 -10 -5 0 -7 5 -4 10 3 6 8 10 11 10 2 0 4 -4 4
-10z m121 1 c7 11 9 10 9 -4 0 -20 -22 -19 -26 1 -2 9 -1 9 3 1 4 -8 8 -7 14
2z m-41 -35 c0 -9 -9 -14 -20 -13 -11 1 -20 5 -20 10 0 5 7 7 15 3 8 -3 15 -1
15 4 0 6 2 10 5 10 3 0 5 -6 5 -14z m17 -18 c-3 -8 -6 -5 -6 6 -1 11 2 17 5
13 3 -3 4 -12 1 -19z m-47 -137 c0 -16 -8 -20 -42 -23 -35 -2 -44 -7 -46 -24
-2 -17 4 -23 27 -27 22 -5 31 -12 31 -27 0 -16 -7 -20 -30 -20 -27 0 -30 -3
-30 -30 0 -29 1 -30 49 -30 46 0 48 -1 43 -25 -4 -23 -8 -25 -63 -25 l-59 0
-1 58 c-1 31 -3 87 -5 125 l-4 67 65 0 c58 0 65 -2 65 -19z m150 4 c7 -9 14
-55 16 -114 5 -123 -1 -131 -87 -131 -46 0 -61 4 -66 16 -4 10 1 22 10 29 14
10 17 29 17 94 0 47 -4 81 -10 81 -5 0 -10 9 -10 20 0 18 7 20 59 20 40 0 63
-5 71 -15z m160 -4 c0 -16 -8 -20 -42 -23 -36 -2 -44 -7 -46 -26 -3 -18 2 -23
27 -28 43 -9 44 -44 1 -44 -27 0 -30 -3 -30 -31 0 -31 1 -31 45 -27 43 3 45 2
45 -24 0 -27 -1 -28 -59 -28 l-58 0 -7 61 c-3 34 -6 91 -6 125 l0 64 65 0 c58
0 65 -2 65 -19z m259 -18 c11 -41 41 -199 41 -214 0 -21 -30 -7 -36 16 -5 19
-13 25 -35 25 -22 0 -29 -5 -29 -20 0 -19 -25 -38 -36 -28 -4 5 21 189 32 235
4 16 13 23 30 23 18 0 25 -8 33 -37z"/>
<path d="M1198 2053 c6 -2 18 -2 25 0 6 3 1 5 -13 5 -14 0 -19 -2 -12 -5z"/>
<path d="M1228 613 c7 -3 16 -2 19 1 4 3 -2 6 -13 5 -11 0 -14 -3 -6 -6z"/>
<path d="M1180 560 c0 -5 11 -10 25 -10 14 0 25 5 25 10 0 6 -11 10 -25 10
-14 0 -25 -4 -25 -10z"/>
<path d="M1318 480 c-4 -25 -1 -30 15 -30 13 0 17 5 13 16 -3 9 -6 22 -6 30 0
27 -18 14 -22 -16z"/>
<path d="M1290 285 c0 -24 5 -35 15 -35 10 0 15 11 15 35 0 24 -5 35 -15 35
-10 0 -15 -11 -15 -35z"/>
<path d="M1300 180 c0 -23 5 -30 19 -30 21 0 33 22 25 45 -4 8 -15 15 -25 15
-14 0 -19 -7 -19 -30z"/>
<path d="M1535 830 c-4 -6 7 -10 25 -10 18 0 29 4 25 10 -3 6 -15 10 -25 10
-10 0 -22 -4 -25 -10z"/>
<path d="M1460 571 c0 -5 11 -8 25 -8 14 0 25 3 25 8 0 5 -11 9 -25 9 -14 0
-25 -4 -25 -9z"/>
<path d="M1637 513 c-14 -13 -7 -63 8 -63 11 0 13 8 8 33 -7 38 -8 39 -16 30z"/>
<path d="M1607 382 c-3 -15 -3 -47 0 -70 4 -32 10 -42 24 -42 16 0 19 8 19 50
0 36 4 50 14 50 9 0 12 7 9 20 -4 14 -14 20 -33 20 -22 0 -29 -5 -33 -28z"/>
<path d="M1020 235 c0 -72 2 -85 16 -85 14 0 16 8 10 46 -3 26 -6 64 -6 85 0
22 -4 39 -10 39 -6 0 -10 -35 -10 -85z"/>
<path d="M1467 254 c-14 -14 -8 -64 8 -64 16 0 17 10 6 48 -3 13 -9 20 -14 16z"/>
<path d="M733 2660 c-16 -6 -21 -15 -17 -27 5 -17 5 -17 -9 0 -14 17 -17 17
-56 1 -22 -9 -48 -14 -56 -10 -21 8 -19 -11 3 -23 13 -8 9 -10 -20 -6 -24 2
-41 -1 -48 -11 -7 -7 -9 -14 -5 -14 4 0 -3 -8 -15 -18 -18 -14 -21 -25 -17
-44 7 -28 39 -42 56 -25 24 24 20 -3 -3 -28 -15 -16 -26 -24 -26 -19 -1 14
-30 -57 -30 -72 0 -17 46 -37 69 -31 11 3 8 7 -11 15 -34 14 -37 27 -5 19 21
-6 21 -6 3 8 -11 9 -14 15 -7 15 7 0 25 -13 41 -28 l28 -29 5 26 c3 14 1 31
-5 38 -5 6 -11 28 -14 47 l-4 36 43 0 c24 0 47 4 53 10 6 6 21 6 39 1 l30 -9
-34 -1 c-58 -2 -29 -10 45 -14 58 -2 76 -8 105 -30 41 -31 46 -32 46 -12 0 8
-4 12 -9 9 -20 -13 -5 12 23 37 30 26 33 27 55 12 14 -9 26 -14 27 -12 21 37
27 50 27 56 0 5 -4 2 -9 -6 -12 -19 -41 -6 -41 19 0 27 -18 62 -29 56 -5 -3
-16 3 -26 14 -13 15 -31 20 -67 20 -27 0 -48 5 -48 11 0 6 -10 8 -22 5 -13 -3
-17 -3 -10 0 6 3 10 10 6 15 -6 11 -32 11 -61 -1z m-59 -66 c12 -5 13 -10 4
-24 -7 -10 -18 -16 -27 -12 -11 4 -13 1 -7 -13 4 -11 4 -16 0 -12 -4 4 -13 2
-21 -4 -15 -13 -15 -13 -18 19 -2 18 3 22 23 22 25 0 25 1 6 15 -19 14 -19 14
3 15 12 0 28 -3 37 -6z m242 -6 c-4 6 -3 12 2 12 16 0 31 -25 27 -45 -2 -11
-4 -29 -5 -40 -1 -15 -3 -16 -7 -5 -4 8 -14 21 -24 28 -11 8 -16 19 -12 29 4
11 3 14 -5 9 -8 -5 -10 -2 -6 9 5 13 9 13 22 3 12 -10 14 -10 8 0z m-359 -18
c1 -16 -1 -17 -12 -7 -7 6 -11 15 -8 20 8 13 19 7 20 -13z m267 -17 c17 -16
25 -21 19 -13 -18 20 -16 30 6 30 20 0 35 -25 25 -41 -10 -17 -38 -9 -66 18
-25 24 -42 21 -18 -2 6 -6 -13 -10 -50 -10 -37 0 -56 4 -49 10 5 5 24 9 43 9
19 0 34 2 34 6 -3 29 19 26 56 -7z m-22 -40 c37 -33 10 -46 -29 -14 -13 11
-23 22 -23 25 0 12 34 5 52 -11z m113 7 c3 -5 2 -10 -4 -10 -5 0 -13 5 -16 10
-3 6 -2 10 4 10 5 0 13 -4 16 -10z m-315 -20 c8 -5 11 -10 5 -10 -5 0 -17 5
-25 10 -8 5 -10 10 -5 10 6 0 17 -5 25 -10z"/>
<path d="M951 2476 c-8 -9 -10 -16 -6 -16 4 0 2 -7 -5 -15 -11 -13 -8 -21 15
-45 16 -17 24 -30 18 -30 -6 0 -14 7 -17 16 -3 8 -10 12 -16 9 -5 -3 -10 -2
-10 4 0 6 -6 8 -14 5 -8 -3 -17 -1 -21 5 -17 28 -26 7 -23 -54 3 -62 18 -86
32 -50 3 9 18 15 36 15 17 0 29 4 25 9 -3 5 0 16 7 23 23 25 38 57 29 63 -5 3
-11 -1 -14 -7 -2 -7 -8 -10 -13 -5 -4 4 2 15 15 23 19 14 27 41 9 32 -4 -2
-13 5 -21 15 -12 17 -14 17 -26 3z m-24 -102 c-3 -3 -12 -4 -19 -1 -8 3 -5 6
6 6 11 1 17 -2 13 -5z m13 -24 c0 -5 -8 -10 -17 -10 -15 0 -16 2 -3 10 19 12
20 12 20 0z"/>
<path d="M696 2435 c4 -8 2 -15 -4 -15 -6 0 -12 5 -14 11 -2 6 -4 -9 -5 -33
l-2 -44 40 -1 c23 -1 37 2 34 8 -9 14 10 11 44 -8 38 -22 38 -26 5 -48 -29
-19 -58 -22 -89 -11 l-20 8 20 -17 c14 -11 32 -15 57 -12 35 5 37 4 36 -25 -1
-29 -2 -30 -50 -26 -52 3 -54 2 -34 -24 15 -21 80 -19 100 3 19 19 30 75 17
84 -6 3 -11 11 -11 17 0 7 5 7 14 -1 11 -10 15 -4 18 29 2 28 0 39 -8 36 -7
-3 -22 6 -35 20 -12 13 -17 24 -11 24 7 0 5 8 -5 20 -22 25 -106 30 -97 5z"/>
<path d="M840 2430 c6 -11 13 -20 16 -20 2 0 0 9 -6 20 -6 11 -13 20 -16 20
-2 0 0 -9 6 -20z"/>
<path d="M500 2311 c0 -11 -5 -23 -12 -27 -8 -5 -9 0 -6 14 4 12 3 20 -2 17
-4 -3 -10 -14 -13 -26 -5 -19 -3 -21 25 -15 39 8 46 15 28 26 -12 8 -11 10 5
10 17 0 17 2 5 10 -22 14 -30 12 -30 -9z"/>
<path d="M690 2320 c0 -5 18 -10 41 -10 24 0 38 4 34 10 -3 6 -22 10 -41 10
-19 0 -34 -4 -34 -10z"/>
<path d="M911 2291 c-14 -24 -14 -42 -1 -21 5 8 14 15 20 15 13 0 15 18 1 23
-5 2 -14 -6 -20 -17z"/>
<path d="M605 2250 c-4 -6 -10 -8 -15 -5 -5 3 -16 -2 -24 -11 -9 -8 -16 -11
-16 -5 0 11 -27 10 -45 -1 -5 -3 -53 -6 -105 -6 -52 0 -131 -5 -175 -11 -44
-6 -108 -9 -143 -6 -57 4 -62 2 -62 -16 0 -11 7 -22 15 -25 13 -5 242 14 381
32 41 5 42 4 52 -33 l10 -38 1 38 c1 38 1 38 41 35 45 -2 51 -14 18 -29 -18
-7 -13 -9 24 -5 30 2 54 -1 65 -10 10 -7 28 -14 40 -14 31 0 40 -20 17 -37
-13 -9 -31 -12 -54 -8 -39 8 -74 24 -67 31 9 9 77 -8 71 -17 -3 -5 4 -9 16 -9
12 0 18 5 15 10 -3 6 0 11 7 11 25 2 -47 17 -89 18 -28 1 -43 -3 -43 -11 -1
-7 -7 -2 -15 12 -9 18 -10 29 -3 37 8 10 5 13 -12 13 -20 0 -21 -4 -16 -37 16
-114 18 -145 7 -139 -6 4 -11 5 -11 2 0 -3 25 -17 56 -32 47 -22 61 -25 87
-16 l32 10 -32 1 c-44 1 -63 10 -64 30 0 10 -2 11 -6 4 -10 -25 -23 -12 -23
22 0 28 5 38 24 46 36 17 77 -13 72 -52 -3 -29 -2 -29 48 23 28 30 61 67 73
83 l23 30 -11 -30 c-5 -16 -15 -35 -21 -42 -6 -7 -8 -13 -4 -13 3 0 15 15 26
33 11 17 20 26 20 19 0 -7 -14 -34 -31 -59 -34 -49 -33 -51 23 -13 30 20 39
35 53 88 10 34 15 66 11 69 -3 4 -6 0 -6 -9 0 -20 -35 -35 -97 -42 -48 -6 -54
-4 -85 25 -21 20 -29 33 -20 36 6 3 12 11 12 19 0 16 -36 19 -45 4z"/>
<path d="M862 2185 c-3 -77 -25 -113 -92 -152 -44 -26 -49 -31 -31 -36 12 -3
19 -1 15 4 -3 5 -2 9 3 10 4 0 16 2 26 4 14 3 16 -1 12 -16 -4 -10 -4 -19 -2
-19 10 0 60 85 73 124 7 22 11 29 9 14 -3 -16 -1 -28 4 -28 14 0 28 23 34 60
6 33 6 34 -9 15 -21 -28 -28 -22 -35 32 l-6 48 -1 -60z"/>
<path d="M907 2233 c-10 -9 -9 -23 1 -23 5 0 9 7 9 15 0 17 -1 18 -10 8z"/>
<path d="M670 2211 c0 -10 9 -21 20 -24 18 -5 18 -4 3 19 -19 29 -23 30 -23 5z"/>
<path d="M0 1263 c0 -863 1 -911 17 -908 10 2 20 4 23 4 3 1 -1 5 -7 9 -10 6
-9 13 3 30 8 12 20 20 25 17 11 -8 11 -3 -1 30 -8 21 -6 29 10 42 11 10 20 25
20 34 0 24 30 80 46 86 11 4 13 18 9 52 -2 25 -7 76 -10 113 l-6 66 -55 36
-54 36 0 108 c0 59 -3 166 -7 239 -6 126 -5 132 17 160 22 27 22 33 19 223
l-4 195 190 27 c189 27 190 27 217 60 15 18 26 39 23 45 -2 7 -12 56 -21 108
l-17 96 -51 -6 c-28 -4 -116 -15 -195 -26 -79 -10 -147 -19 -152 -19 -5 0 -15
12 -23 28 -14 24 -15 -71 -16 -885z"/>
<path d="M481 2074 c0 -11 3 -14 6 -6 3 7 2 16 -1 19 -3 4 -6 -2 -5 -13z"/>
<path d="M182 937 c-6 -6 -9 -27 -8 -45 1 -17 -1 -32 -6 -32 -10 0 -6 -23 6
-31 5 -4 9 -26 9 -50 0 -33 2 -39 8 -22 4 11 13 24 20 29 7 4 10 3 5 -4 -3 -6
-1 -14 5 -18 7 -4 9 -3 5 4 -3 6 -2 13 4 17 5 3 10 14 10 24 0 24 32 59 49 53
7 -2 17 2 22 9 10 18 -16 48 -58 65 -40 17 -58 18 -71 1z"/>
<path d="M670 914 c-19 -8 -30 -18 -25 -22 6 -4 15 -17 20 -29 9 -19 12 -20
27 -9 19 14 37 76 22 76 -5 -1 -25 -8 -44 -16z"/>
<path d="M410 798 c0 -5 -7 -8 -16 -8 -13 0 -15 -6 -9 -27 9 -37 23 -53 46
-53 11 0 19 -5 19 -11 0 -6 -12 -9 -27 -7 -16 2 -28 -2 -31 -11 -4 -11 4 -12
39 -6 24 4 63 8 87 8 40 -1 42 1 27 17 -8 9 -15 23 -15 32 0 8 -9 23 -20 33
-11 10 -17 21 -15 25 3 5 -15 10 -40 12 -25 2 -45 0 -45 -4z m67 -64 c-3 -3
-12 -4 -19 -1 -8 3 -5 6 6 6 11 1 17 -2 13 -5z"/>
<path d="M338 744 c-10 -9 4 -44 17 -44 8 0 10 9 7 25 -4 24 -13 31 -24 19z"/>
<path d="M207 638 c-2 -13 -8 -30 -11 -39 -9 -20 26 -32 45 -15 9 8 10 7 5 -9
-6 -17 -4 -17 18 4 32 30 32 35 2 27 -20 -5 -23 -3 -19 13 3 10 -1 22 -8 26
-8 6 -10 4 -5 -6 4 -8 1 -6 -7 4 -14 16 -15 16 -20 -5z"/>
<path d="M323 645 c0 -8 4 -15 9 -15 4 0 8 4 8 9 0 6 -4 12 -8 15 -5 3 -9 -1
-9 -9z"/>
<path d="M170 641 c0 -6 4 -13 10 -16 6 -3 7 1 4 9 -7 18 -14 21 -14 7z"/>
<path d="M304 595 c-4 -8 -10 -13 -14 -10 -9 6 -24 -24 -21 -42 1 -7 -5 -13
-14 -13 -9 0 -14 -4 -10 -10 3 -5 13 -6 22 -3 12 5 14 3 8 -7 -5 -8 -4 -11 2
-7 6 4 13 0 17 -8 7 -18 27 -20 24 -2 -2 6 -12 16 -22 20 -19 7 -19 8 2 23 22
15 42 12 42 -7 0 -6 -4 -8 -9 -4 -6 3 -9 -4 -8 -15 1 -11 7 -20 14 -20 7 0 13
-4 13 -10 0 -5 8 -10 18 -10 14 0 15 2 2 10 -12 8 -11 10 8 10 20 0 21 -2 11
-21 -9 -17 -8 -20 2 -17 7 2 23 -5 35 -16 l21 -21 -21 -13 c-20 -12 -20 -13 4
-6 21 6 23 5 13 -8 -17 -20 -9 -26 26 -22 27 3 96 53 75 54 -17 1 62 31 106
41 56 12 65 18 74 47 7 20 4 22 -26 22 -24 0 -29 -3 -18 -10 20 -13 12 -17
-43 -23 -39 -5 -47 -4 -38 7 8 10 5 16 -13 24 -19 9 -25 8 -30 -4 -3 -8 -10
-14 -16 -14 -6 0 -8 5 -5 10 3 6 1 10 -6 10 -7 0 -21 7 -31 16 -16 16 -18 15
-27 -7 -5 -13 -6 -28 -3 -33 3 -5 0 -6 -6 -2 -7 4 -12 2 -12 -3 0 -6 -6 -11
-14 -11 -15 0 -29 27 -21 41 3 4 -6 11 -20 15 -15 4 -25 13 -25 24 0 11 -7 17
-17 16 -10 0 -17 5 -15 12 3 17 -27 15 -34 -3z m60 -41 c4 -9 4 -19 1 -22 -6
-6 -35 18 -35 29 0 16 28 10 34 -7z m-69 -12 c-3 -3 -11 0 -18 7 -9 10 -8 11
6 5 10 -3 15 -9 12 -12z m260 -52 l30 -20 -28 0 c-15 0 -30 6 -33 14 -3 8 -13
12 -22 9 -15 -4 -15 -3 -2 6 20 14 20 14 55 -9z m78 -17 c-7 -2 -21 -2 -30 0
-10 3 -4 5 12 5 17 0 24 -2 18 -5z"/>
<path d="M125 569 c-4 -6 -5 -12 -2 -15 2 -3 7 2 10 11 7 17 1 20 -8 4z"/>
<path d="M628 513 c7 -3 16 -2 19 1 4 3 -2 6 -13 5 -11 0 -14 -3 -6 -6z"/>
<path d="M1036 457 c3 -10 9 -15 12 -12 3 3 0 11 -7 18 -10 9 -11 8 -5 -6z"/>
<path d="M850 456 c0 -2 7 -7 16 -10 8 -3 12 -2 9 4 -6 10 -25 14 -25 6z"/>
<path d="M7 314 c-4 -4 -7 -19 -6 -33 l0 -26 10 24 c10 26 8 47 -4 35z"/>
<path d="M700 285 c0 -24 5 -35 15 -35 10 0 15 11 15 35 0 24 -5 35 -15 35
-10 0 -15 -11 -15 -35z"/>
<path d="M700 180 c0 -25 4 -30 25 -30 21 0 25 5 25 30 0 25 -4 30 -25 30 -21
0 -25 -5 -25 -30z"/>
</g>
</svg>
